<svg width="900" height="407" viewBox="0 0 900 407" fill="none" xmlns="http://www.w3.org/2000/svg" class="h-auto w-40 sm:w-48">
<path fill-rule="evenodd" clip-rule="evenodd" d="M93.7018 123.718C110.623 109.85 131.796 102.219 153.673 102.104C200.555 102.104 246.097 131.937 246.279 208.957V304.181H186.369V209.139C186.369 169.321 167.555 154.343 141.862 154.343C132.848 154.447 124.002 156.788 116.117 161.156C108.232 165.524 101.555 171.781 96.6852 179.367V303.998H36.5309V57.4144H0L19.2396 0H93.7018V123.718ZM843.255 120.309C827.717 109.605 809.549 103.353 790.715 102.227C771.881 101.102 753.098 105.146 736.395 113.922C719.693 122.698 705.707 135.873 695.95 152.022C686.193 168.171 681.036 186.68 681.036 205.547C681.036 224.415 686.193 242.924 695.95 259.073C705.707 275.222 719.693 288.396 736.395 297.173C753.098 305.949 771.881 309.993 790.715 308.867C809.549 307.742 827.717 301.489 843.255 290.786V304.059H899.939V107.584H843.255V120.309ZM839.602 233.554C833.575 243.069 824.621 250.37 814.087 254.358C803.554 258.345 792.01 258.805 781.192 255.667C770.375 252.529 760.869 245.963 754.104 236.958C747.34 227.952 743.682 216.993 743.682 205.73C743.682 194.467 747.34 183.508 754.104 174.502C760.869 165.496 770.375 158.931 781.192 155.793C792.01 152.655 803.554 153.115 814.087 157.102C824.621 161.09 833.575 168.391 839.602 177.906V233.554ZM310.452 107.279L355.202 263.753L401.231 107.279H463.943L363.543 406.711H300.223L333.405 308.26H313.679L248.167 107.279H310.452ZM579.989 243.174L628.332 107.279H690.008L611.832 303.998H548.086L469.97 107.279H531.829L579.989 243.174ZM812.326 0.0609398H746.327L727.087 57.4145H792.965L812.326 0.0609398ZM833.94 0.0609398H900L880.639 57.4145H814.761L833.94 0.0609398Z" fill="#0A23B9"></path>
</svg>